<svg height="512" viewBox="0 0 512 512" width="512" xmlns="http://www.w3.org/2000/svg"><g><g><path d="m336 320h160v40h-160z" fill="#3e3d42"/><path d="m336 272h24v48h-24z" fill="#787680"/><path d="m472 272h24v48h-24z" fill="#787680"/><path d="m16 360h480v56h-480z" fill="#acabb1"/><path d="m192 336h-65l9-32h48z" fill="#acabb1"/><path d="m360 176 8 16 16-16 16 16 16-16 16 16 16-16 16 16 8-16v144h-112z" fill="#ffda44"/><path d="m304 116v156h-288v-156a19.994 19.994 0 0 1 20-20h248a19.994 19.994 0 0 1 20 20z" fill="#78b9eb"/><g fill="#d8d7da"><path d="m304 272v12a19.994 19.994 0 0 1 -20 20h-248a19.994 19.994 0 0 1 -20-20v-12z"/><path d="m104 336h112v24h-112z"/></g></g><g><path d="m496 264h-16v-88a8 8 0 0 0 -15.16-3.58l-3.03 6.08-8.15-8.16a8.015 8.015 0 0 0 -11.32 0l-10.34 10.35-10.34-10.35a8.015 8.015 0 0 0 -11.32 0l-10.34 10.35-10.34-10.35a8.015 8.015 0 0 0 -11.32 0l-8.15 8.16-3.03-6.08a8 8 0 0 0 -15.16 3.58v88h-16a8 8 0 0 0 -8 8v80h-104v-16a8 8 0 0 0 -8-8h-17.75l-4-16h89.75a28.031 28.031 0 0 0 28-28v-168a28.031 28.031 0 0 0 -28-28h-248a28.031 28.031 0 0 0 -28 28v168a28.031 28.031 0 0 0 28 28h89.44l-4.5 16h-16.94a8 8 0 0 0 -8 8v16h-80a8 8 0 0 0 -8 8v56a8 8 0 0 0 8 8h480a8 8 0 0 0 8-8v-144a8 8 0 0 0 -8-8zm-128-64a8.035 8.035 0 0 0 5.66-2.34l10.34-10.35 10.34 10.35a8.015 8.015 0 0 0 11.32 0l10.34-10.35 10.34 10.35a8.015 8.015 0 0 0 11.32 0l10.34-10.35 10.34 10.35a8.035 8.035 0 0 0 5.66 2.34v112h-96zm-24 80h8v32h-8zm-320-164a12.01 12.01 0 0 1 12-12h248a12.01 12.01 0 0 1 12 12v148h-272zm12 180a12.01 12.01 0 0 1 -12-12v-4h272v4a12.01 12.01 0 0 1 -12 12zm145.75 32h-44.19l4.5-16h35.69zm-69.75 16h96v8h-96zm376 64h-464v-40h464zm0-56h-144v-24h144zm0-40h-8v-32h8z"/><path d="m384 280h64a8 8 0 0 0 0-16h-64a8 8 0 0 0 0 16z"/><path d="m384 304h64a8 8 0 0 0 0-16h-64a8 8 0 0 0 0 16z"/><path d="m384 256h64a8 8 0 0 0 0-16h-64a8 8 0 0 0 0 16z"/><path d="m384 232h64a8 8 0 0 0 0-16h-64a8 8 0 0 0 0 16z"/></g></g></svg>